<svg width="28" height="28" viewBox="0 0 28 28" fill="none" xmlns="http://www.w3.org/2000/svg">
<path d="M22.2915 9.01038L22.2915 9.01041L22.2963 9.01506C22.6406 9.35031 22.8334 9.81509 22.8334 10.3018V23.3335C22.8334 24.3407 22.0073 25.1668 21.0001 25.1668H7.00008C5.99289 25.1668 5.16675 24.3407 5.16675 23.3335V4.66683C5.16675 3.65964 5.99289 2.8335 7.00008 2.8335H15.3651C15.8518 2.8335 16.3166 3.02633 16.6518 3.37064L16.6518 3.37067L16.6565 3.37538L22.2915 9.01038ZM18.6667 21.5002H19.1667V21.0002V20.3352C19.1667 19.1884 18.4861 18.1696 17.4422 17.7181C16.3903 17.2603 15.2261 17.0002 14.0001 17.0002C12.774 17.0002 11.6098 17.2603 10.5579 17.7181C9.51399 18.1697 8.83342 19.1884 8.83342 20.3352V21.0002V21.5002H9.33342H18.6667ZM16.8334 14.0002C16.8334 12.4407 15.5596 11.1668 14.0001 11.1668C12.4406 11.1668 11.1667 12.4407 11.1667 14.0002C11.1667 15.5596 12.4406 16.8335 14.0001 16.8335C15.5596 16.8335 16.8334 15.5596 16.8334 14.0002Z" fill="#07ACDF" stroke="#07ACDF"/>
</svg>
