<svg width="28" height="22" viewBox="0 0 28 22" fill="none" xmlns="http://www.w3.org/2000/svg">
<path d="M23.8508 17.9493L23.8464 17.9486C22.9268 17.7769 21.9648 17.7024 21.0096 17.7024C19.9828 17.7024 18.7069 17.9 17.4714 18.2341C16.2336 18.5689 15.0754 19.0301 14.2728 19.5354L13.5064 20.018V19.1123V4.45657V4.18053L13.74 4.03345C14.6563 3.45651 15.9173 2.96273 17.2103 2.61306C18.5055 2.26279 19.8717 2.04661 21.0096 2.04661C22.213 2.04661 23.4076 2.16429 24.5537 2.41455L23.8508 17.9493ZM23.8508 17.9493C24.9286 18.1406 25.9661 17.3404 25.9661 16.2092M23.8508 17.9493L25.9661 16.2092M25.9661 16.2092V4.15098C25.9661 3.3102 25.3623 2.59056 24.5542 2.41465L25.9661 16.2092ZM13.7042 2.3083L14.0064 2.53755L14.3086 2.3083C16.0287 1.0034 18.5732 0.5 21.0096 0.5C22.813 0.5 24.6975 0.774686 26.2419 1.46209C27.0032 1.80682 27.5 2.53942 27.5 3.36153V17.7244C27.5 19.073 26.2485 20.0461 24.9689 19.7109L24.9658 19.7101C23.6715 19.38 22.3051 19.2362 20.9968 19.2362C18.9673 19.2362 16.768 19.56 14.9669 20.4605L14.9639 20.462C14.3563 20.771 13.6575 20.7727 13.0331 20.4605L13.0304 20.4591C11.2323 19.5735 9.03535 19.2362 7.00318 19.2362C5.69509 19.2362 4.32883 19.3799 3.03472 19.71C1.7503 20.0362 0.5 19.0577 0.5 17.7244V3.36153C0.5 2.53964 0.996521 1.80721 1.75753 1.46237C3.31542 0.774475 5.20048 0.5 7.00318 0.5C9.43948 0.5 11.9841 1.0034 13.7042 2.3083ZM16.1007 7.47797L16.1008 7.47794L16.0978 7.46899C16.0202 7.23606 16.156 6.97752 16.3817 6.90809L16.3817 6.90814L16.3891 6.90576C18.2706 6.29486 20.7301 6.09346 23.0005 6.35372C23.2577 6.38589 23.4326 6.616 23.4036 6.85352C23.3722 7.11153 23.1416 7.28713 22.9036 7.25811L22.9014 7.25784C20.7938 7.01065 18.4866 7.19978 16.709 7.76174C16.6758 7.76673 16.6432 7.77226 16.6182 7.77648C16.6068 7.77841 16.597 7.78007 16.5895 7.78128C16.5686 7.78466 16.5538 7.78674 16.5422 7.788C16.5318 7.78914 16.5274 7.78922 16.5274 7.78922C16.3304 7.78918 16.1604 7.66886 16.1007 7.47797ZM16.1007 10.865L16.1008 10.8649L16.0978 10.856C16.0202 10.623 16.156 10.3645 16.3817 10.2951L16.3817 10.2952L16.39 10.2925C18.2579 9.68202 20.7296 9.48041 23.0005 9.7407C23.2577 9.77285 23.4326 10.003 23.4036 10.2405C23.3722 10.4985 23.1416 10.6741 22.9036 10.6451L22.9014 10.6448C20.7844 10.3965 18.466 10.5885 16.6852 11.1563C16.6245 11.1704 16.5688 11.1762 16.5275 11.1762C16.3305 11.1762 16.1604 11.0559 16.1007 10.865ZM16.1007 14.252L16.1008 14.2519L16.0978 14.243C16.0202 14.01 16.156 13.7515 16.3817 13.6821L16.3817 13.6821L16.39 13.6794C18.2579 13.069 20.7296 12.8674 23.0005 13.1277C23.2577 13.1598 23.4326 13.39 23.4036 13.6275C23.3737 13.8729 23.1519 14.0541 22.8956 14.0312C20.7802 13.7839 18.4644 13.976 16.6852 14.5433C16.6245 14.5574 16.5688 14.5632 16.5275 14.5632C16.3305 14.5632 16.1604 14.4429 16.1007 14.252Z" fill="#07ACDF" stroke="#07ACDF"/>
</svg>
