<svg width="48" height="48" viewBox="0 0 48 48" fill="none" xmlns="http://www.w3.org/2000/svg">
<g clip-path="url(#clip0_596_2449)">
<path d="M24 0C10.7663 0 0 10.7663 0 24C0 37.2337 10.7663 48 24 48C37.2337 48 48 37.2337 48 24C48 10.7663 37.2337 0 24 0ZM34.7614 29.9109C34.4801 30.1922 34.0985 30.3503 33.7007 30.3503C33.3029 30.3503 32.9214 30.1922 32.6401 29.9109L24 21.271L15.3599 29.9109C15.078 30.1894 14.6974 30.3451 14.3012 30.3439C13.9049 30.3426 13.5252 30.1847 13.245 29.9045C12.9649 29.6243 12.8069 29.2447 12.8057 28.8484C12.8045 28.4522 12.9601 28.0715 13.2386 27.7897L22.9394 18.0892C23.2207 17.8079 23.6022 17.6499 24 17.6499C24.3978 17.6499 24.7793 17.8079 25.0606 18.0892L34.7614 27.7897C35.0427 28.071 35.2007 28.4525 35.2007 28.8503C35.2007 29.2481 35.0427 29.6296 34.7614 29.9109Z" fill="url(#paint0_linear_596_2449)"/>
</g>
<defs>
<linearGradient id="paint0_linear_596_2449" x1="3.73113" y1="10.8" x2="41.4111" y2="40.32" gradientUnits="userSpaceOnUse">
<stop stop-color="#00F1FF"/>
<stop offset="0.322917" stop-color="#00D8FF"/>
<stop offset="0.619792" stop-color="#00C0FF"/>
<stop offset="0.7773" stop-color="#00B2FF"/>
<stop offset="1" stop-color="#00ADFF"/>
</linearGradient>
<clipPath id="clip0_596_2449">
<rect width="48" height="48" fill="white"/>
</clipPath>
</defs>
</svg>
