<svg width="680" height="401" viewBox="0 0 680 401" fill="none" xmlns="http://www.w3.org/2000/svg">
<path d="M36.3392 368.652C79.0815 395.113 229.899 405.805 405.799 397.353C581.699 388.9 697.069 362.071 677.93 302.911C658.791 243.751 596.806 239.047 607.742 170.488C618.679 101.929 627.2 34.6346 563.407 9.27119C499.615 -16.0923 416.883 15.6415 365.848 43.8176C314.813 71.9938 224.355 127.322 196.096 115.111C167.838 102.899 138.514 68.2304 86.9748 113.641C-32.3984 218.833 -7.65838 341.412 36.3392 368.652Z" fill="url(#paint0_linear_601_2452)"/>
<path style="mix-blend-mode:multiply" opacity="0.5" d="M491.345 358.291C491.653 368.53 441.451 378.418 379.214 380.398C316.977 382.377 266.276 375.698 265.96 365.468C265.648 355.238 315.864 345.341 378.092 343.361C440.319 341.381 491.035 348.066 491.345 358.291Z" fill="url(#paint1_linear_601_2452)"/>
<g style="mix-blend-mode:multiply">
<path d="M422.508 366.652C422.508 366.652 422.931 370.572 429.992 369.788C435.351 369.181 441.737 368.612 445.603 369.23C449.468 369.847 459.216 369.96 464.199 365.981C469.182 362.002 468.393 356.837 466.144 356.18C463.895 355.524 457.333 356.67 454.789 358.439C452.245 360.208 446.996 362.894 441.86 362.399C436.725 361.904 423.093 358.831 422.508 366.652Z" fill="url(#paint2_linear_601_2452)"/>
<path d="M468.616 355.617C468.616 355.617 468.616 357.949 471.208 357.861C473.799 357.773 475.692 355.332 475.383 353.902C475.073 352.471 470.437 352.025 468.616 355.617Z" fill="url(#paint3_linear_601_2452)"/>
<path d="M470.09 360.209C470.09 360.209 470.304 361.581 472.297 361.792C474.289 362.003 474.674 360.415 474.522 359.695C474.37 358.974 471.041 358.234 470.09 360.209Z" fill="url(#paint4_linear_601_2452)"/>
<path d="M472.63 364.858C472.459 365.534 471.517 365.872 470.523 365.608C469.53 365.343 468.854 364.583 469.026 363.907C469.197 363.231 470.138 362.898 471.132 363.157C472.126 363.417 472.791 364.182 472.63 364.858Z" fill="url(#paint5_linear_601_2452)"/>
<path d="M469.425 367.603C469.259 368.279 468.389 368.632 467.48 368.397C466.572 368.162 465.978 367.417 466.149 366.736C466.32 366.055 467.186 365.707 468.089 365.947C468.992 366.187 469.592 366.927 469.425 367.603Z" fill="url(#paint6_linear_601_2452)"/>
<path d="M538.752 350.864C538.752 350.864 538.752 355.161 545.856 354.828C551.244 354.573 557.658 354.98 561.429 356.034C565.2 357.087 574.885 358.302 580.263 354.912C585.641 351.521 585.403 346.292 583.24 345.386C581.076 344.479 574.429 344.895 571.714 346.366C568.999 347.836 563.492 349.913 558.438 348.816C553.383 347.718 540.169 343.156 538.752 350.864Z" fill="url(#paint7_linear_601_2452)"/>
<path d="M585.755 345.107C585.755 345.107 585.522 347.43 588.094 347.636C590.666 347.842 592.816 345.627 592.663 344.171C592.511 342.716 587.947 341.741 585.755 345.107Z" fill="url(#paint8_linear_601_2452)"/>
<path d="M586.734 349.834C586.734 349.834 586.801 351.225 588.755 351.661C590.71 352.097 591.266 350.559 591.19 349.829C591.114 349.099 587.89 347.981 586.734 349.834Z" fill="url(#paint9_linear_601_2452)"/>
<path d="M588.76 354.748C588.522 355.4 587.548 355.626 586.587 355.238C585.627 354.851 585.042 354.033 585.28 353.381C585.517 352.73 586.492 352.499 587.453 352.891C588.413 353.283 588.998 354.092 588.76 354.748Z" fill="url(#paint10_linear_601_2452)"/>
<path d="M585.284 357.112C585.046 357.769 584.143 358.018 583.268 357.68C582.393 357.342 581.879 356.539 582.117 355.882C582.355 355.225 583.258 354.975 584.133 355.314C585.008 355.652 585.522 356.485 585.284 357.112Z" fill="url(#paint11_linear_601_2452)"/>
<path d="M476.386 321.506C476.386 321.506 476.386 316.954 482.496 316.057C487.836 315.278 493.989 313.293 497.455 311.431C500.922 309.569 510.123 306.237 516.081 308.359C522.039 310.48 522.899 315.635 520.973 317.003C519.048 318.37 512.472 319.453 509.519 318.61C506.566 317.767 500.746 316.968 496.038 319.139C491.331 321.31 479.372 328.719 476.386 321.506Z" fill="url(#paint12_linear_601_2452)"/>
<path d="M523.493 316.718C523.493 316.718 522.78 314.498 525.248 313.729C527.716 312.96 530.278 314.645 530.435 316.105C530.592 317.566 526.337 319.516 523.493 316.718Z" fill="url(#paint13_linear_601_2452)"/>
<path d="M523.46 311.892C523.46 311.892 523.237 310.52 525.058 309.657C526.879 308.795 527.74 310.182 527.816 310.912C527.892 311.642 524.977 313.435 523.46 311.892Z" fill="url(#paint14_linear_601_2452)"/>
<path d="M524.416 306.634C524.045 306.05 523.047 306.045 522.186 306.634C521.325 307.222 520.931 308.153 521.297 308.736C521.663 309.319 522.666 309.329 523.527 308.736C524.387 308.143 524.787 307.222 524.416 306.634Z" fill="url(#paint15_linear_601_2452)"/>
<path d="M520.527 305.095C520.16 304.512 519.224 304.463 518.439 304.987C517.655 305.512 517.322 306.413 517.693 306.997C518.063 307.58 518.995 307.634 519.78 307.104C520.565 306.575 520.897 305.683 520.527 305.095Z" fill="url(#paint16_linear_601_2452)"/>
</g>
<path d="M332.604 321.298C332.604 321.298 329.558 331.215 329.051 333.257C328.545 335.298 328.644 335.89 329.246 338.23C329.847 340.57 332.77 352.294 333.779 354.932C334.592 357.091 336.178 358.843 338.208 359.827C339.605 360.444 344.631 360.087 345.763 359.774C346.45 359.584 347.124 359.349 347.781 359.069C347.781 359.069 347.672 356.89 346.488 356.132C345.303 355.373 341.888 354.707 341.888 354.707C341.888 354.707 339.624 350.081 339.52 347.785C339.415 345.49 340.941 336.527 341.689 335.327C342.438 334.128 351.163 324.201 354.005 320.427C355.545 318.421 356.949 316.308 358.206 314.102C358.206 314.102 353.725 312.658 350.405 312.633C347.084 312.609 342.352 313.872 340.619 315.013C338.885 316.153 332.604 321.298 332.604 321.298Z" fill="url(#paint17_linear_601_2452)"/>
<path style="mix-blend-mode:multiply" d="M332.604 321.298C332.604 321.298 329.558 331.215 329.051 333.257C328.545 335.298 328.644 335.89 329.246 338.23C329.847 340.57 332.77 352.294 333.779 354.932C334.592 357.091 336.178 358.843 338.208 359.827C339.605 360.444 344.631 360.087 345.763 359.774C346.45 359.584 347.124 359.349 347.781 359.069C347.781 359.069 347.672 356.89 346.488 356.132C345.303 355.373 341.888 354.707 341.888 354.707C341.888 354.707 339.624 350.081 339.52 347.785C339.415 345.49 340.941 336.527 341.689 335.327C342.438 334.128 351.163 324.201 354.005 320.427C355.545 318.421 356.949 316.308 358.206 314.102C358.206 314.102 353.725 312.658 350.405 312.633C347.084 312.609 342.352 313.872 340.619 315.013C338.885 316.153 332.604 321.298 332.604 321.298Z" fill="url(#paint18_linear_601_2452)"/>
<path d="M393.393 321.163C393.393 321.163 395.405 320.335 399.127 317.635C401.424 315.967 403.602 314.131 405.644 312.143L409.738 313.167C409.738 313.167 417.426 322.516 418.339 324.564C419.251 326.612 419.294 327.7 418.554 329.665C417.813 331.63 414.683 336.035 413.747 337.681C412.811 339.328 411.764 341.68 411.143 341.538C410.522 341.396 407.149 338.171 407.321 336.309C407.46 335.103 407.797 333.93 408.319 332.84C408.612 331.783 408.964 330.744 409.375 329.729C409.686 329.024 410.057 328.348 410.484 327.71C410.484 327.71 403.427 323.515 400.264 322.452C398.027 321.765 395.723 321.332 393.393 321.163Z" fill="url(#paint19_linear_601_2452)"/>
<path style="mix-blend-mode:multiply" d="M393.393 321.163C393.393 321.163 395.405 320.335 399.127 317.635C401.424 315.967 403.602 314.131 405.644 312.143L409.738 313.167C409.738 313.167 417.426 322.516 418.339 324.564C419.251 326.612 419.294 327.7 418.554 329.665C417.813 331.63 414.683 336.035 413.747 337.681C412.811 339.328 411.764 341.68 411.143 341.538C410.522 341.396 407.149 338.171 407.321 336.309C407.46 335.103 407.797 333.93 408.319 332.84C408.612 331.783 408.964 330.744 409.375 329.729C409.686 329.024 410.057 328.348 410.484 327.71C410.484 327.71 403.427 323.515 400.264 322.452C398.027 321.765 395.723 321.332 393.393 321.163Z" fill="url(#paint20_linear_601_2452)"/>
<path d="M443.533 343.276C443.533 343.276 447.843 344.513 451.101 344.126C452.685 343.969 454.256 343.705 455.806 343.335C455.806 343.335 460.563 342.781 461.148 342.108C461.734 341.436 461.148 339.006 460.506 338.049C459.864 337.092 459.384 336.444 459.384 336.444C459.384 336.444 453.313 324.061 453.475 322.098C453.637 320.134 455.378 315.162 454.374 313.292C453.371 311.422 450.873 305.145 447.096 301.292C443.319 297.439 437.382 292.393 434.628 290.494C431.873 288.594 425.637 284.172 422.083 282.729C418.529 281.286 408.763 276.643 407.174 275.524C405.585 274.405 401.042 270.267 396.233 270.267C391.423 270.267 380.059 274.051 374.455 275.175C368.851 276.299 359.089 277.109 353.3 277.021C347.51 276.932 337.031 277.718 331.931 278.984C326.831 280.25 321.518 282.832 320.143 282.572C318.768 282.312 309.71 276.653 308.436 275.072C307.161 273.492 299.606 261.29 298.55 258.124C297.494 254.958 294.117 244.582 293.926 242.977C293.736 241.372 292.437 238.56 291.962 240.032C291.486 241.505 293.489 251.208 295.339 258.895C297.19 266.581 299.302 271.455 302.765 276.829C306.228 282.204 313.302 289.429 313.302 289.429C313.302 289.429 309.496 299.863 306.98 306.494C304.463 313.125 303.988 315.01 299.635 320.969C295.282 326.927 288.627 337.436 288.275 339.208C287.923 340.979 287.704 348.612 287.918 353.476C288.132 358.34 289.264 365.982 289.379 366.698C289.493 367.415 290.977 368.799 293.118 369.334C295.258 369.869 299.592 368.735 300.31 368.289L301.029 367.842C301.029 367.842 300.453 364.671 298.807 364.293C297.161 363.915 295.373 363.567 295.373 363.567C295.373 363.567 296.8 352.469 297.585 349.559C298.37 346.648 301.947 340.091 303.707 339.222C305.467 338.354 316.799 332.449 322.564 328.866C326.816 326.278 330.759 323.182 334.31 319.643C336.769 317.189 341.507 313.125 347.839 312.63C354.17 312.134 361.435 314.019 364.213 315.084C366.991 316.149 369.036 317.047 369.036 317.047C369.036 317.047 367.229 319.148 367.281 319.958C367.333 320.767 367.528 326.039 367.88 332.267C368.232 338.496 369.041 350.114 369.446 352.165C369.85 354.217 370.873 356.745 372.214 357.172C373.556 357.599 381.424 356.357 381.938 355.616C382.452 354.875 381.629 353.162 380.473 352.352C379.378 351.665 378.249 351.037 377.09 350.472C377.09 350.472 376.928 337.926 377.794 335.413C378.66 332.901 379.464 331.948 379.65 330.613C379.835 329.278 381.552 325.146 382.475 324.993C383.398 324.841 393.017 321.587 394.92 320.61C396.823 319.634 405.562 312.085 405.562 312.085C408.103 312.431 410.623 312.922 413.111 313.557C415.357 314.139 417.533 314.977 419.6 316.056C419.877 317.81 420.413 319.509 421.189 321.096C422.142 322.9 423.362 324.539 424.804 325.955L443.533 343.276Z" fill="url(#paint21_linear_601_2452)"/>
<path style="mix-blend-mode:multiply" d="M367.42 319.983C367.451 319.818 367.491 319.654 367.539 319.493C367.466 319.646 367.426 319.813 367.42 319.983Z" fill="url(#paint22_linear_601_2452)"/>
<path style="mix-blend-mode:multiply" opacity="0.3" d="M373.423 312.642C373.423 312.642 369.301 312.314 355.987 308.396C342.673 304.478 338.555 306.109 338.555 306.109C338.555 306.109 337.523 309.704 332.531 316.56C326.825 324.396 319.217 330.273 319.217 330.273L320.895 329.911C321.513 329.544 322.098 329.196 322.636 328.863C326.888 326.281 330.83 323.192 334.38 319.661C336.839 317.212 341.575 313.157 347.903 312.662C354.232 312.167 361.493 314.048 364.27 315.111C366.472 315.968 368.207 316.693 368.83 316.962C370.173 315.324 371.717 313.872 373.423 312.642Z" fill="url(#paint23_linear_601_2452)"/>
<path style="mix-blend-mode:multiply" d="M315.838 285.681C315.838 285.681 321.255 284.408 324.446 281.39C322.503 282.091 320.988 282.6 320.335 282.483C318.949 282.228 309.888 276.576 308.611 274.998C307.334 273.421 299.769 261.245 298.711 258.086C297.653 254.926 294.271 244.572 294.08 242.97C293.89 241.369 292.589 238.562 292.113 240.032C292.113 240.032 295.176 258.404 301.369 269.018C305.141 275.45 310.048 281.101 315.838 285.681Z" fill="url(#paint24_linear_601_2452)"/>
<path style="mix-blend-mode:multiply" opacity="0.5" d="M419.37 316.379C419.649 318.129 420.187 319.825 420.965 321.409C421.921 323.209 423.146 324.845 424.593 326.258L443.39 343.563C443.39 343.563 447.715 344.797 450.986 344.41C452.567 344.253 454.136 343.991 455.684 343.627C440.64 340.198 428.112 320.767 427.081 317.858C425.811 314.263 420.717 311.324 420.717 311.324L409.258 306.754L405.281 312.426C407.832 312.771 410.361 313.261 412.858 313.895C415.112 314.473 417.296 315.306 419.37 316.379Z" fill="url(#paint25_linear_601_2452)"/>
<path style="mix-blend-mode:multiply" d="M434.286 290.143C431.378 288.115 425.533 284.003 422.14 282.62C420.933 282.128 419.008 281.261 416.912 280.291C418.129 285.446 415.525 294.57 415.278 298.159C414.959 302.758 421.612 301.773 425.414 299.144C427.776 297.504 430.627 293.097 434.286 290.143Z" fill="url(#paint26_linear_601_2452)"/>
<path style="mix-blend-mode:multiply" d="M411.938 278.142C409.797 277.086 408.047 276.178 407.442 275.751C405.84 274.631 401.295 270.492 396.474 270.492C391.654 270.492 380.262 274.278 374.645 275.402C369.028 276.527 359.243 277.337 353.44 277.249C347.637 277.16 337.132 277.946 332.02 279.213C331.067 279.443 330.113 279.704 329.202 280.018C331.644 284.186 336.832 290.717 345.596 291.596C358.633 292.907 360.22 287.668 366.896 290.614C373.572 293.56 376.752 306.002 386.604 302.074C394.729 298.794 405.682 282.164 411.938 278.142Z" fill="url(#paint27_linear_601_2452)"/>
<path d="M461.133 342.302C461.754 341.643 461.133 339.264 460.478 338.326C459.823 337.389 459.333 336.754 459.333 336.754L459.275 336.644C455.51 338.374 455.685 343.504 455.685 343.504C455.685 343.504 460.517 342.961 461.133 342.302Z" fill="#270006"/>
<path d="M450.929 318.023C449.929 318.584 448.862 319.022 447.753 319.327C446.735 319.562 445.731 319.855 444.748 320.203C444.748 320.203 447.7 322.421 449.302 321.85C450.905 321.279 450.929 318.023 450.929 318.023Z" fill="#270006"/>
<path d="M432.065 307.927C431.745 308.079 428.125 312.398 427.165 316.121C426.205 319.845 424.734 326.365 424.777 329.551C424.82 332.738 426.764 336.84 427.819 338.258C428.875 339.676 436.784 345.965 439.759 345.956C442.734 345.946 443.58 342.36 443.255 340.942C442.93 339.524 441.297 324.809 441.02 320.8C440.743 316.791 441.359 311.65 441.617 310.99C441.875 310.33 442.878 308.444 442.242 308.183C439.098 306.373 435.291 306.277 432.065 307.927Z" fill="url(#paint28_linear_601_2452)"/>
<path style="mix-blend-mode:multiply" d="M432.065 307.927C431.745 308.079 428.125 312.398 427.165 316.121C426.205 319.845 424.734 326.365 424.777 329.551C424.82 332.738 426.764 336.84 427.819 338.258C428.875 339.676 436.784 345.965 439.759 345.956C442.734 345.946 443.58 342.36 443.255 340.942C442.93 339.524 441.297 324.809 441.02 320.8C440.743 316.791 441.359 311.65 441.617 310.99C441.875 310.33 442.878 308.444 442.242 308.183C439.098 306.373 435.291 306.277 432.065 307.927Z" fill="url(#paint29_linear_601_2452)"/>
<g style="mix-blend-mode:overlay">
<path d="M429.531 287.153C426.913 285.429 424.034 283.667 422.019 282.854C418.475 281.422 408.716 276.817 407.129 275.707C405.542 274.597 401.004 270.492 396.201 270.492C391.397 270.492 380.046 274.246 374.449 275.361C368.852 276.476 359.103 277.279 353.32 277.192C347.538 277.104 337.071 277.883 331.977 279.139C328.58 279.976 325.112 281.398 322.76 282.182C320.204 283.716 318.265 285.103 318.265 285.103C318.265 285.103 328.799 280.317 344.554 279.261C356.589 278.423 372.416 277.932 378.117 276.636C383.819 275.341 393.321 272.089 397.441 273.389C401.56 274.689 403.774 275.01 410.108 277.932C414.892 280.137 424.913 284.913 429.531 287.153Z" fill="white"/>
</g>
<path opacity="0.7" d="M167.058 127.895C167.846 127.895 168.485 127.237 168.485 126.425C168.485 125.613 167.846 124.955 167.058 124.955C166.27 124.955 165.632 125.613 165.632 126.425C165.632 127.237 166.27 127.895 167.058 127.895Z" fill="white"/>
<path d="M476.554 87.6474C484.895 96.2906 497.466 98.9047 508.407 94.2707C519.347 89.6366 526.501 78.6672 526.532 66.4779C526.564 54.2885 519.466 43.2801 508.55 38.5864C497.634 33.8926 485.049 36.438 476.664 45.0355C465.217 56.7722 465.168 75.8483 476.554 87.6474Z" fill="url(#paint30_linear_601_2452)"/>
<path style="mix-blend-mode:multiply" opacity="0.5" d="M156.121 379.766C216.784 379.766 265.961 371.429 265.961 361.145C265.961 350.861 216.784 342.524 156.121 342.524C95.4585 342.524 46.2817 350.861 46.2817 361.145C46.2817 371.429 95.4585 379.766 156.121 379.766Z" fill="url(#paint31_linear_601_2452)"/>
<path d="M114.745 267.062C114.745 267.062 151.406 238.103 161.569 228.237C171.732 218.372 180.595 203.657 185.907 191.723C191.219 179.788 203.238 157.356 207.625 151.629C212.011 145.902 220.565 138.262 220.565 138.262L229.347 132.295C229.347 132.295 224.496 116.07 221.277 108.431C219.265 103.725 216.788 99.2454 213.886 95.0645L203.466 105.808C203.466 105.808 192.838 100.556 190.991 99.6C189.145 98.6438 168.58 101.512 160.952 101.512C153.324 101.512 149.17 101.748 145.472 103.179C141.774 104.611 117.745 117.977 109.661 121.557C101.576 125.136 95.1014 129.196 95.5666 130.383C96.0318 131.569 103.883 147.569 105.963 147.088C108.042 146.608 126.987 135.874 134.616 131.099C142.244 126.323 146.858 124.415 146.858 124.415L166.269 127.995C166.269 127.995 160.724 145.421 149.179 159.979C137.635 174.537 112.675 191.483 103.66 194.822C94.6457 198.161 90.0269 198.401 90.0269 198.401C90.0269 198.401 99.7345 220.834 102.739 234.44C105.744 248.047 111.759 264.031 114.061 266.895" fill="url(#paint32_linear_601_2452)"/>
<path style="mix-blend-mode:multiply" d="M135.675 173.541C136.623 173.211 148.325 179.466 163.186 178.809C178.047 178.153 196.864 169.098 196.864 169.098L199.867 163.667L141.367 167.454L135.675 173.541Z" fill="url(#paint33_linear_601_2452)"/>
<path d="M161.151 101.578C153.526 101.578 149.367 101.813 145.668 103.239C141.97 104.666 117.937 117.984 109.852 121.55C101.767 125.117 95.2912 129.162 95.7565 130.344C95.804 130.476 142.521 105.032 148.455 104.055C154.39 103.078 184.675 100.371 190.064 102.589C195.452 104.807 202.578 107.475 202.578 107.475L203.67 105.853C203.67 105.853 193.04 100.62 191.194 99.6678C189.347 98.7151 168.78 101.578 161.151 101.578Z" fill="url(#paint34_linear_601_2452)"/>
<path d="M96.4582 131.836C96.2698 131.367 90.5029 139.047 90.5029 139.047C90.5029 139.047 93.9467 144.657 96.2988 146.899C97.6987 148.242 99.3521 149.279 101.158 149.946L104.292 145.778C104.292 145.778 98.651 137.446 96.4582 131.836Z" fill="url(#paint35_linear_601_2452)"/>
<path d="M93.8675 144.065C93.8675 144.065 89.4945 148.243 87.7689 148.478C86.0433 148.714 78.9094 147.405 77.529 147.522C76.1485 147.64 71.1987 152.181 69.5914 153.607C67.984 155.034 67.8611 156.236 68.556 156.471C69.251 156.706 70.3951 156.236 70.3951 156.236C70.3951 156.236 71.1987 157.785 72.5792 157.903C73.9597 158.021 79.9448 155.878 83.5093 156.236C87.0739 156.594 93.059 157.903 94.6711 158.619C96.2833 159.335 98.926 163.395 100.425 164.111C101.923 164.826 104.107 165.184 103.072 162.796C102.037 160.409 99.6115 156.599 99.6115 154.686C99.6115 152.774 100.42 149.435 100.42 149.435C100.42 149.435 96.3967 147.645 93.8675 144.065Z" fill="url(#paint36_linear_601_2452)"/>
<path d="M176.091 209.729C176.091 209.729 184.711 209.41 189.484 208.749C191.978 208.456 194.448 207.978 196.875 207.319C197.374 205.158 198.15 203.075 199.181 201.125C200.875 197.947 211.345 178.404 215.344 172.205C217.653 168.607 220.172 165.158 222.888 161.878C222.888 161.878 227.969 150.615 230.127 147.099C232.286 143.584 234.577 139.818 234.577 139.818L227.935 133.775C227.935 133.775 218.547 138.701 211.62 146.806C204.694 154.91 189.759 182.718 186.524 190.342C183.576 197.093 180.087 203.578 176.091 209.729Z" fill="url(#paint37_linear_601_2452)"/>
<path d="M225.068 179.442C225.068 179.442 227.231 194.664 229.241 200.85C231.251 207.037 232.485 211.791 234.647 213.218C236.81 214.645 274.995 215.119 274.995 215.119C274.995 215.119 271.594 204.339 271.903 197.835C272.213 191.331 272.056 188.008 272.056 188.008C272.056 188.008 261.238 187.691 254.283 187.212C247.328 186.733 246.552 186.723 245.623 186.102C244.694 185.482 243.77 180.395 242.998 177.224C242.226 174.052 240.521 158.513 239.906 154.081C239.292 149.649 238.615 143.086 238.615 143.086C238.615 143.086 232.947 153.441 230.165 160.433C227.383 167.426 225.068 179.442 225.068 179.442Z" fill="url(#paint38_linear_601_2452)"/>
<path d="M176.091 209.729C176.091 209.729 184.711 209.41 189.484 208.749C191.978 208.456 194.448 207.978 196.875 207.319C197.374 205.158 198.15 203.075 199.181 201.125C200.875 197.947 211.345 178.404 215.344 172.205C217.653 168.607 220.172 165.158 222.888 161.878C222.888 161.878 227.969 150.615 230.127 147.099C232.286 143.584 234.577 139.818 234.577 139.818L227.935 133.775C227.935 133.775 218.547 138.701 211.62 146.806C204.694 154.91 189.759 182.718 186.524 190.342C183.576 197.093 180.087 203.578 176.091 209.729Z" fill="url(#paint39_linear_601_2452)"/>
<path style="mix-blend-mode:multiply" d="M197.965 166.607C197.965 166.607 206.769 164.678 212.956 161.783C219.142 158.888 221.998 156.394 221.998 156.394L224.696 156.558L226.971 152.887L221.874 153.369L200.74 162.357L197.965 166.607Z" fill="url(#paint40_linear_601_2452)"/>
<path d="M234.624 139.557C234.624 139.557 224.384 154.871 221.903 166.513C219.422 178.155 220.507 191.095 220.818 193.637C221.129 196.178 221.745 203.848 221.745 203.848C221.745 203.848 225.005 177.526 228.108 167.634C231.21 157.742 237.415 144.98 239.103 144.183C240.79 143.387 250.27 144.021 250.27 144.021C250.27 144.021 250.117 140.673 248.252 138.121C246.388 135.57 245.771 135.245 245.771 135.245C245.771 135.245 241.273 141.307 239.256 140.653C237.731 140.206 236.185 139.84 234.624 139.557Z" fill="url(#paint41_linear_601_2452)"/>
<path d="M221.548 202.728C221.548 202.728 221.397 224.032 221.856 229.118C222.314 234.204 224.615 241.044 225.386 245.336C226.156 249.628 223.85 253.289 224.157 252.808C224.464 252.328 211.739 235.321 207.145 228.006C202.552 220.69 198.711 213.061 198.559 211.631C198.408 210.2 198.711 209.088 198.087 208.132C197.463 207.177 197.014 207.177 197.014 207.177C197.014 207.177 197.128 205.947 199.004 201.934C201.541 196.515 206.474 187.161 210.964 179.674C218.784 166.636 222.924 161.707 222.924 161.707C222.924 161.707 219.857 177.288 220.471 186.034C221.085 194.78 221.856 202.101 221.856 202.101L221.548 202.728Z" fill="black"/>
<path d="M127.116 164.612C128.037 164.293 140.203 153.462 142.048 152.186C143.894 150.909 154.214 149.475 167.761 151.695C181.308 153.914 193.934 159.02 210.873 152.014C218.992 148.651 218.418 147.394 218.418 147.394L221.341 142.612L221.189 137.515L222.726 136.715C222.726 136.715 225.91 142.116 228.093 143.618C229.516 144.6 232.676 142.469 232.676 142.469L227.039 152.647L221.957 153.138C221.957 153.138 211.334 161.102 194.399 166.041C177.464 170.98 164.981 174.643 154.826 173.848C144.672 173.052 140.971 170.98 135.738 169.07C132.688 167.981 129.789 166.482 127.116 164.612Z" fill="black"/>
<path d="M272.425 188.329L278.038 188.167C278.038 188.167 277.688 195.958 278 200.094C278.312 204.23 280.225 211.066 280.225 211.066L274.458 212.178C272.549 204.602 271.813 196.769 272.276 188.961" fill="url(#paint42_linear_601_2452)"/>
<path d="M280.035 210.708C280.783 209.62 281.283 208.386 281.501 207.09C281.646 205.687 281.687 204.276 281.621 202.867L278.323 203.229L280.035 210.708Z" fill="black"/>
<path d="M277.639 188.082C277.154 193.214 277.332 198.39 278.169 203.473L281.283 203.118L282.898 200.749C283.259 201.597 283.724 202.393 284.282 203.118C284.999 204.123 286.008 204.869 287.163 205.249L287.049 206.222C287.049 206.222 289.584 207.642 291.314 207.759C293.044 207.876 295.105 206.932 296.275 206.577C297.446 206.222 299.042 202.077 300.066 200.657C301.09 199.237 301.217 197.339 302.028 195.919C302.838 194.499 303.871 192.961 303.411 190.714C302.952 188.467 297.526 186.686 295.915 185.85C294.304 185.013 289.57 180.402 288.532 179.22C287.495 178.037 285.765 176.495 284.268 178.033C282.77 179.57 281.268 185.611 280.69 186.438C280.112 187.265 277.577 188.569 277.577 188.569" fill="url(#paint43_linear_601_2452)"/>
<path d="M288.785 185.718L292.489 175.528C292.489 175.528 290.753 169.416 294.106 157.911C297.458 146.406 303.017 140.289 307.188 139.688C311.358 139.087 313.897 147.002 310.516 157.911C307.135 168.82 303.574 173.13 301.144 175.149C298.714 177.168 295.009 177.306 295.009 177.306L293.412 184.989L288.785 185.718Z" fill="black"/>
<path d="M283.262 200.908C283.262 200.908 281.933 206.354 282.152 207.064C282.37 207.774 285.005 209.379 285.92 208.484C286.723 207.671 287.233 206.581 287.358 205.406C287.358 205.406 283.813 203.038 283.262 200.908Z" fill="black"/>
<path d="M306.69 160.052C303.278 168.499 298.348 174.446 295.678 173.333C293.008 172.22 293.62 164.464 297.037 156.012C300.454 147.56 305.38 141.613 308.045 142.731C310.71 143.849 310.107 151.6 306.69 160.052Z" fill="url(#paint44_linear_601_2452)"/>
<path d="M88.6105 336.91C91.2314 332.298 113.459 303.034 118.706 296.51C123.952 289.986 123.8 287.765 124.414 280.922C125.027 274.079 125.208 258.654 125.208 258.654C125.208 258.654 152.064 236.704 160.245 229.39C168.427 222.077 175.99 209.665 175.99 209.665C175.99 209.665 179.229 209.509 183.553 209.347C187.877 209.185 196.829 207.278 196.829 207.278L197.442 207.768C198.061 208.259 198.218 209.357 198.218 210.788C198.218 212.219 200.377 216.356 201.766 219.694C203.155 223.033 220.907 247.532 223.685 251.982C226.463 256.433 245.598 280.614 247.297 284.594C248.995 288.574 246.978 291.902 242.34 297.941C237.702 303.98 223.67 326.734 222.89 328.665C222.11 330.597 225.055 331.69 225.673 332.803C226.291 333.915 225.977 340.278 225.977 341.866C225.977 343.454 224.588 345.209 223.975 346.003C223.361 346.797 223.499 348.39 223.499 348.39C223.499 348.39 215.784 354.115 212.083 355.228C208.383 356.341 203.902 359.998 202.974 360.159C202.047 360.321 200.663 356.816 200.506 354.767C200.349 352.718 202.051 350.63 203.131 347.905C204.211 345.18 204.982 337.41 208.839 322.774C212.697 308.137 221.03 288.579 221.03 288.099C221.03 287.618 217.634 285.873 213.777 283.648C209.919 281.422 203.436 276.491 195.701 270.604C187.967 264.717 170.082 249.448 168.227 248.811C166.372 248.174 163.137 250.247 161.13 253.428C159.123 256.61 153.876 274.261 151.712 281.104C149.548 287.947 146.156 294.466 140.139 302.098C134.122 309.73 114.054 329.136 112.046 332.16C110.039 335.185 108.498 340.91 108.65 343.292C108.802 345.675 106.643 348.684 105.72 349.174C104.797 349.665 100.935 351.4 96.7682 350.763C92.6014 350.125 87.0409 347.106 86.2703 346.949C86.2703 346.949 85.3427 342.969 85.9611 341.381C86.5795 339.792 88.6105 336.91 88.6105 336.91Z" fill="url(#paint45_linear_601_2452)"/>
<path d="M155.17 270.911C162.598 271.142 170.033 270.813 177.414 269.928C188.308 268.492 191.784 267.293 191.784 267.293C191.784 267.293 176.315 253.679 172.939 251.448C169.563 249.216 168.149 247.618 165.521 248.896C162.893 250.174 161.66 253.04 159.808 256.551C157.956 260.061 155.17 270.911 155.17 270.911Z" fill="black"/>
<path d="M96.8357 350.439C92.6934 349.808 87.1765 346.786 86.4114 346.629C86.4114 346.629 86.35 346.365 86.2697 345.953C85.7643 346.957 83.908 350.621 81.8156 354.416C79.3595 358.863 77.5221 364.27 77.6732 366.019C77.8244 367.767 81.8156 371.406 86.8695 369.354C91.9235 367.302 94.3796 363.79 97.445 360.93C100.51 358.07 101.583 354.255 101.89 353.304C102.15 352.25 102.317 351.173 102.39 350.087C100.578 350.575 98.6919 350.694 96.8357 350.439Z" fill="black"/>
<path d="M193.701 86.9196C192.992 87.2673 217.171 94.5485 242.188 101.854C267.205 109.16 284.498 111.07 284.964 111.231C285.431 111.393 275.851 105.987 271.526 103.127C267.2 100.268 261.337 97.0898 261.337 97.0898C261.337 97.0898 260.861 89.3043 260.718 83.8984C260.576 78.4926 259.329 72.7782 257.63 71.5051C255.931 70.232 241.878 66.1189 237.558 65.4676C233.237 64.8164 230.762 65.1787 229.529 67.2157C228.297 69.2527 224.742 78.4779 222.867 81.5187C220.992 84.5595 219.488 87.7031 219.027 87.7031C218.565 87.7031 196.946 85.3282 193.701 86.9196Z" fill="url(#paint46_linear_601_2452)"/>
<path d="M222.283 81.833C222.283 81.833 236.792 86.2186 245.284 87.1401C253.775 88.0616 260.411 89.3305 260.873 89.9577C261.334 90.5849 261.182 96.5336 261.182 96.5336C261.182 96.5336 249.289 95.1248 238.643 92.9296C231.937 91.5225 225.335 89.6427 218.887 87.3041C218.887 87.3041 219.505 85.905 222.283 81.833Z" fill="url(#paint47_linear_601_2452)"/>
<path d="M193.686 86.7334C193.686 86.7334 200.463 91.0743 205.681 93.2281C210.898 95.3818 213.379 95.5538 213.379 95.5538L214.607 93.3809L193.686 86.7334Z" fill="url(#paint48_linear_601_2452)"/>
<path d="M258.494 105.844L257.877 108.862C257.877 108.862 269.886 111.723 275.267 111.723C278.37 111.744 281.467 111.426 284.505 110.773C284.505 110.773 263.727 107.426 258.494 105.844Z" fill="url(#paint49_linear_601_2452)"/>
<path d="M258.708 106.108C259.486 106.206 256.245 112.599 256.245 114.185C256.245 115.771 255.936 120.993 256.719 123.37C257.502 125.747 258.414 130.339 256.102 130.812C253.791 131.286 251.945 129.861 250.559 130.495C249.174 131.13 246.863 134.136 245.168 135.722C243.474 137.308 241.163 140.788 239.317 140.632C237.471 140.475 234.699 139.656 233.148 138.572C231.596 137.489 228.065 133.501 228.065 133.501L229.607 132.076C229.607 132.076 225.294 117.508 222.37 110.383C219.447 103.258 214.132 95.0198 214.132 95.0198L214.668 93.5947C214.668 93.5947 252.391 105.312 258.708 106.108Z" fill="url(#paint50_linear_601_2452)"/>
<path d="M216.198 98.0775C217.277 97.9159 218.355 95.8533 220.668 96.0101C222.982 96.1668 225.447 97.7591 225.447 100.939C225.447 104.118 223.134 112.56 223.134 112.56L224.982 117.645L229.931 118.586C229.931 118.586 230.549 109.522 231.779 105.848C233.01 102.173 233.627 99.4787 233.627 99.4787C233.627 99.4787 221.276 95.8239 218.217 94.7069C215.158 93.5898 214.669 93.5947 214.669 93.5947L214.132 95.0253L216.198 98.0775Z" fill="#270006"/>
<path d="M249.344 354.158C248.188 351.053 245.422 352.01 241.04 351.769C236.659 351.529 234.816 352.26 230.667 350.788C226.517 349.317 223.519 348.404 223.519 348.404C223.519 348.404 215.836 354.134 212.151 355.247C209.721 355.983 206.964 357.813 205.098 359.03C205.173 359.486 205.538 361.09 206.926 361.296C208.537 361.536 221.681 361.536 225.83 361.536C229.98 361.536 240.353 362.027 244.967 360.82C249.58 359.613 250.495 357.264 249.344 354.158Z" fill="black"/>
<path d="M230.299 66.4112C230.299 66.4112 248.033 69.6298 252.586 71.8581C257.14 74.0864 260.255 88.694 260.255 88.694C260.255 88.694 259.824 72.279 257.643 71.0757C255.462 69.8725 239.406 65.1731 236.05 65.1731C234.07 65.1622 232.11 65.5841 230.299 66.4112Z" fill="url(#paint51_linear_601_2452)"/>
<path d="M213.683 95.5547C213.683 95.5547 219.186 108.334 221.797 116.381C224.818 125.691 225.854 131.326 225.854 131.326C225.854 131.326 217.344 137.045 214.16 140.637C210.976 144.228 207 150.437 207 150.437C207 150.437 215.788 140.543 221.138 137.324C226.489 134.105 229.348 131.934 229.348 131.934C229.348 131.934 222.513 106.58 213.683 95.5547Z" fill="url(#paint52_linear_601_2452)"/>
<path d="M245.99 187.678L272.142 188.449L271.875 190.618L245.99 187.678Z" fill="url(#paint53_linear_601_2452)"/>
<path d="M392.918 70.5626C393.443 70.5626 393.869 70.1238 393.869 69.5826C393.869 69.0413 393.443 68.6025 392.918 68.6025C392.393 68.6025 391.967 69.0413 391.967 69.5826C391.967 70.1238 392.393 70.5626 392.918 70.5626Z" fill="white"/>
<path d="M452.355 123.975C452.881 123.975 453.306 123.536 453.306 122.995C453.306 122.453 452.881 122.015 452.355 122.015C451.83 122.015 451.404 122.453 451.404 122.995C451.404 123.536 451.83 123.975 452.355 123.975Z" fill="white"/>
<path d="M587.871 80.3624C588.396 80.3624 588.822 79.9236 588.822 79.3824C588.822 78.8411 588.396 78.4023 587.871 78.4023C587.346 78.4023 586.92 78.8411 586.92 79.3824C586.92 79.9236 587.346 80.3624 587.871 80.3624Z" fill="white"/>
<path d="M353.452 136.715C353.977 136.715 354.403 136.276 354.403 135.735C354.403 135.194 353.977 134.755 353.452 134.755C352.927 134.755 352.501 135.194 352.501 135.735C352.501 136.276 352.927 136.715 353.452 136.715Z" fill="white"/>
<path d="M290.686 126.425C291.212 126.425 291.637 125.986 291.637 125.445C291.637 124.904 291.212 124.465 290.686 124.465C290.161 124.465 289.735 124.904 289.735 125.445C289.735 125.986 290.161 126.425 290.686 126.425Z" fill="white"/>
<path d="M534.616 178.858C535.141 178.858 535.567 178.419 535.567 177.878C535.567 177.336 535.141 176.897 534.616 176.897C534.091 176.897 533.665 177.336 533.665 177.878C533.665 178.419 534.091 178.858 534.616 178.858Z" fill="white"/>
<defs>
<linearGradient id="paint0_linear_601_2452" x1="311" y1="264.428" x2="365.412" y2="73.5379" gradientUnits="userSpaceOnUse">
<stop stop-color="#7700BB"/>
<stop offset="1"/>
</linearGradient>
<linearGradient id="paint1_linear_601_2452" x1="264.979" y1="362.009" x2="489.85" y2="355.981" gradientUnits="userSpaceOnUse">
<stop stop-color="#7700BB"/>
<stop offset="1"/>
</linearGradient>
<linearGradient id="paint2_linear_601_2452" x1="422.508" y1="362.948" x2="467.899" y2="362.948" gradientUnits="userSpaceOnUse">
<stop stop-color="#7700BB"/>
<stop offset="1"/>
</linearGradient>
<linearGradient id="paint3_linear_601_2452" x1="468.616" y1="355.352" x2="475.416" y2="355.352" gradientUnits="userSpaceOnUse">
<stop stop-color="#7700BB"/>
<stop offset="1"/>
</linearGradient>
<linearGradient id="paint4_linear_601_2452" x1="470.09" y1="360.376" x2="474.55" y2="360.376" gradientUnits="userSpaceOnUse">
<stop stop-color="#7700BB"/>
<stop offset="1"/>
</linearGradient>
<linearGradient id="paint5_linear_601_2452" x1="468.997" y1="364.383" x2="472.654" y2="364.383" gradientUnits="userSpaceOnUse">
<stop stop-color="#7700BB"/>
<stop offset="1"/>
</linearGradient>
<linearGradient id="paint6_linear_601_2452" x1="466.12" y1="367.172" x2="469.454" y2="367.172" gradientUnits="userSpaceOnUse">
<stop stop-color="#7700BB"/>
<stop offset="1"/>
</linearGradient>
<linearGradient id="paint7_linear_601_2452" x1="538.752" y1="351.026" x2="584.676" y2="351.026" gradientUnits="userSpaceOnUse">
<stop stop-color="#7700BB"/>
<stop offset="1"/>
</linearGradient>
<linearGradient id="paint8_linear_601_2452" x1="585.75" y1="345.24" x2="592.673" y2="345.24" gradientUnits="userSpaceOnUse">
<stop stop-color="#7700BB"/>
<stop offset="1"/>
</linearGradient>
<linearGradient id="paint9_linear_601_2452" x1="586.734" y1="350.279" x2="591.199" y2="350.279" gradientUnits="userSpaceOnUse">
<stop stop-color="#7700BB"/>
<stop offset="1"/>
</linearGradient>
<linearGradient id="paint10_linear_601_2452" x1="585.227" y1="354.072" x2="588.812" y2="354.072" gradientUnits="userSpaceOnUse">
<stop stop-color="#7700BB"/>
<stop offset="1"/>
</linearGradient>
<linearGradient id="paint11_linear_601_2452" x1="582.06" y1="356.499" x2="585.341" y2="356.499" gradientUnits="userSpaceOnUse">
<stop stop-color="#7700BB"/>
<stop offset="1"/>
</linearGradient>
<linearGradient id="paint12_linear_601_2452" x1="476.386" y1="316.13" x2="521.891" y2="316.13" gradientUnits="userSpaceOnUse">
<stop stop-color="#7700BB"/>
<stop offset="1"/>
</linearGradient>
<linearGradient id="paint13_linear_601_2452" x1="523.398" y1="315.841" x2="530.435" y2="315.841" gradientUnits="userSpaceOnUse">
<stop stop-color="#7700BB"/>
<stop offset="1"/>
</linearGradient>
<linearGradient id="paint14_linear_601_2452" x1="523.451" y1="310.936" x2="527.816" y2="310.936" gradientUnits="userSpaceOnUse">
<stop stop-color="#7700BB"/>
<stop offset="1"/>
</linearGradient>
<linearGradient id="paint15_linear_601_2452" x1="521.159" y1="307.682" x2="524.554" y2="307.682" gradientUnits="userSpaceOnUse">
<stop stop-color="#7700BB"/>
<stop offset="1"/>
</linearGradient>
<linearGradient id="paint16_linear_601_2452" x1="517.54" y1="306.046" x2="520.679" y2="306.046" gradientUnits="userSpaceOnUse">
<stop stop-color="#7700BB"/>
<stop offset="1"/>
</linearGradient>
<linearGradient id="paint17_linear_601_2452" x1="347.911" y1="269.958" x2="332.025" y2="352.885" gradientUnits="userSpaceOnUse">
<stop stop-color="#1DACFF"/>
<stop offset="0.11" stop-color="#20A9FB"/>
<stop offset="0.23" stop-color="#28A0EF"/>
<stop offset="0.34" stop-color="#3690DA"/>
<stop offset="0.46" stop-color="#497BBE"/>
<stop offset="0.57" stop-color="#625F99"/>
<stop offset="0.59" stop-color="#655C95"/>
<stop offset="0.64" stop-color="#6F5F91"/>
<stop offset="0.72" stop-color="#896886"/>
<stop offset="0.83" stop-color="#B37774"/>
<stop offset="0.96" stop-color="#ED8C5C"/>
<stop offset="1" stop-color="#FF9254"/>
</linearGradient>
<linearGradient id="paint18_linear_601_2452" x1="347.911" y1="269.958" x2="332.025" y2="352.885" gradientUnits="userSpaceOnUse">
<stop stop-color="#1DACFF"/>
<stop offset="0.11" stop-color="#20A9FB"/>
<stop offset="0.23" stop-color="#28A0EF"/>
<stop offset="0.34" stop-color="#3690DA"/>
<stop offset="0.46" stop-color="#497BBE"/>
<stop offset="0.57" stop-color="#625F99"/>
<stop offset="0.59" stop-color="#655C95"/>
<stop offset="0.64" stop-color="#6F5F91"/>
<stop offset="0.72" stop-color="#896886"/>
<stop offset="0.83" stop-color="#B37774"/>
<stop offset="0.96" stop-color="#ED8C5C"/>
<stop offset="1" stop-color="#FF9254"/>
</linearGradient>
<linearGradient id="paint19_linear_601_2452" x1="417.164" y1="283.664" x2="387.921" y2="362.347" gradientUnits="userSpaceOnUse">
<stop stop-color="#1DACFF"/>
<stop offset="0.11" stop-color="#20A9FB"/>
<stop offset="0.23" stop-color="#28A0EF"/>
<stop offset="0.34" stop-color="#3690DA"/>
<stop offset="0.46" stop-color="#497BBE"/>
<stop offset="0.57" stop-color="#625F99"/>
<stop offset="0.59" stop-color="#655C95"/>
<stop offset="0.64" stop-color="#6F5F91"/>
<stop offset="0.72" stop-color="#896886"/>
<stop offset="0.83" stop-color="#B37774"/>
<stop offset="0.96" stop-color="#ED8C5C"/>
<stop offset="1" stop-color="#FF9254"/>
</linearGradient>
<linearGradient id="paint20_linear_601_2452" x1="417.164" y1="283.664" x2="387.921" y2="362.347" gradientUnits="userSpaceOnUse">
<stop stop-color="#1DACFF"/>
<stop offset="0.11" stop-color="#20A9FB"/>
<stop offset="0.23" stop-color="#28A0EF"/>
<stop offset="0.34" stop-color="#3690DA"/>
<stop offset="0.46" stop-color="#497BBE"/>
<stop offset="0.57" stop-color="#625F99"/>
<stop offset="0.59" stop-color="#655C95"/>
<stop offset="0.64" stop-color="#6F5F91"/>
<stop offset="0.72" stop-color="#896886"/>
<stop offset="0.83" stop-color="#B37774"/>
<stop offset="0.96" stop-color="#ED8C5C"/>
<stop offset="1" stop-color="#FF9254"/>
</linearGradient>
<linearGradient id="paint21_linear_601_2452" x1="400.819" y1="254.58" x2="375.568" y2="334.414" gradientUnits="userSpaceOnUse">
<stop stop-color="#1DACFF"/>
<stop offset="0.11" stop-color="#20A9FB"/>
<stop offset="0.23" stop-color="#28A0EF"/>
<stop offset="0.34" stop-color="#3690DA"/>
<stop offset="0.46" stop-color="#497BBE"/>
<stop offset="0.57" stop-color="#625F99"/>
<stop offset="0.59" stop-color="#655C95"/>
<stop offset="0.64" stop-color="#6F5F91"/>
<stop offset="0.72" stop-color="#896886"/>
<stop offset="0.83" stop-color="#B37774"/>
<stop offset="0.96" stop-color="#ED8C5C"/>
<stop offset="1" stop-color="#FF9254"/>
</linearGradient>
<linearGradient id="paint22_linear_601_2452" x1="367.495" y1="319.493" x2="367.185" y2="319.735" gradientUnits="userSpaceOnUse">
<stop stop-color="#1DACFF"/>
<stop offset="0.07" stop-color="#20A9FB"/>
<stop offset="0.14" stop-color="#28A0EF"/>
<stop offset="0.21" stop-color="#3690DA"/>
<stop offset="0.28" stop-color="#497BBE"/>
<stop offset="0.35" stop-color="#655C95"/>
<stop offset="0.43" stop-color="#6F5F91"/>
<stop offset="0.57" stop-color="#896886"/>
<stop offset="0.74" stop-color="#B37774"/>
<stop offset="0.94" stop-color="#ED8C5C"/>
<stop offset="1" stop-color="#FF9254"/>
</linearGradient>
<linearGradient id="paint23_linear_601_2452" x1="350.718" y1="315.871" x2="347.622" y2="325.566" gradientUnits="userSpaceOnUse">
<stop stop-color="#1DACFF"/>
<stop offset="0.11" stop-color="#20A9FB"/>
<stop offset="0.23" stop-color="#28A0EF"/>
<stop offset="0.34" stop-color="#3690DA"/>
<stop offset="0.46" stop-color="#497BBE"/>
<stop offset="0.57" stop-color="#625F99"/>
<stop offset="0.59" stop-color="#655C95"/>
<stop offset="0.64" stop-color="#6F5F91"/>
<stop offset="0.72" stop-color="#896886"/>
<stop offset="0.83" stop-color="#B37774"/>
<stop offset="0.96" stop-color="#ED8C5C"/>
<stop offset="1" stop-color="#FF9254"/>
</linearGradient>
<linearGradient id="paint24_linear_601_2452" x1="314.03" y1="231.352" x2="297.311" y2="273.435" gradientUnits="userSpaceOnUse">
<stop stop-color="#1DACFF"/>
<stop offset="0.07" stop-color="#20A9FB"/>
<stop offset="0.14" stop-color="#28A0EF"/>
<stop offset="0.21" stop-color="#3690DA"/>
<stop offset="0.28" stop-color="#497BBE"/>
<stop offset="0.35" stop-color="#655C95"/>
<stop offset="0.43" stop-color="#6F5F91"/>
<stop offset="0.57" stop-color="#896886"/>
<stop offset="0.74" stop-color="#B37774"/>
<stop offset="0.94" stop-color="#ED8C5C"/>
<stop offset="1" stop-color="#FF9254"/>
</linearGradient>
<linearGradient id="paint25_linear_601_2452" x1="438.592" y1="315.471" x2="431.929" y2="332.21" gradientUnits="userSpaceOnUse">
<stop stop-color="#1DACFF"/>
<stop offset="0.07" stop-color="#20A9FB"/>
<stop offset="0.14" stop-color="#28A0EF"/>
<stop offset="0.21" stop-color="#3690DA"/>
<stop offset="0.28" stop-color="#497BBE"/>
<stop offset="0.35" stop-color="#655C95"/>
<stop offset="0.43" stop-color="#6F5F91"/>
<stop offset="0.57" stop-color="#896886"/>
<stop offset="0.74" stop-color="#B37774"/>
<stop offset="0.94" stop-color="#ED8C5C"/>
<stop offset="1" stop-color="#FF9254"/>
</linearGradient>
<linearGradient id="paint26_linear_601_2452" x1="419.16" y1="306.401" x2="433.969" y2="265.948" gradientUnits="userSpaceOnUse">
<stop stop-color="#1DACFF"/>
<stop offset="0.07" stop-color="#20A9FB"/>
<stop offset="0.14" stop-color="#28A0EF"/>
<stop offset="0.21" stop-color="#3690DA"/>
<stop offset="0.28" stop-color="#497BBE"/>
<stop offset="0.35" stop-color="#655C95"/>
<stop offset="0.43" stop-color="#6F5F91"/>
<stop offset="0.57" stop-color="#896886"/>
<stop offset="0.74" stop-color="#B37774"/>
<stop offset="0.94" stop-color="#ED8C5C"/>
<stop offset="1" stop-color="#FF9254"/>
</linearGradient>
<linearGradient id="paint27_linear_601_2452" x1="348.495" y1="290.391" x2="367.811" y2="262.762" gradientUnits="userSpaceOnUse">
<stop stop-color="#1DACFF"/>
<stop offset="0.07" stop-color="#20A9FB"/>
<stop offset="0.14" stop-color="#28A0EF"/>
<stop offset="0.21" stop-color="#3690DA"/>
<stop offset="0.28" stop-color="#497BBE"/>
<stop offset="0.35" stop-color="#655C95"/>
<stop offset="0.43" stop-color="#6F5F91"/>
<stop offset="0.57" stop-color="#896886"/>
<stop offset="0.74" stop-color="#B37774"/>
<stop offset="0.94" stop-color="#ED8C5C"/>
<stop offset="1" stop-color="#FF9254"/>
</linearGradient>
<linearGradient id="paint28_linear_601_2452" x1="437.726" y1="290.951" x2="420.708" y2="333.912" gradientUnits="userSpaceOnUse">
<stop stop-color="#1DACFF"/>
<stop offset="0.11" stop-color="#20A9FB"/>
<stop offset="0.23" stop-color="#28A0EF"/>
<stop offset="0.34" stop-color="#3690DA"/>
<stop offset="0.46" stop-color="#497BBE"/>
<stop offset="0.57" stop-color="#625F99"/>
<stop offset="0.59" stop-color="#655C95"/>
<stop offset="0.64" stop-color="#6F5F97"/>
<stop offset="0.72" stop-color="#89689D"/>
<stop offset="0.83" stop-color="#B377A6"/>
<stop offset="0.96" stop-color="#ED8CB2"/>
<stop offset="1" stop-color="#FF92B6"/>
</linearGradient>
<linearGradient id="paint29_linear_601_2452" x1="437.726" y1="290.951" x2="420.708" y2="333.912" gradientUnits="userSpaceOnUse">
<stop stop-color="#1DACFF"/>
<stop offset="0.11" stop-color="#20A9FB"/>
<stop offset="0.23" stop-color="#28A0EF"/>
<stop offset="0.34" stop-color="#3690DA"/>
<stop offset="0.46" stop-color="#497BBE"/>
<stop offset="0.57" stop-color="#625F99"/>
<stop offset="0.59" stop-color="#655C95"/>
<stop offset="0.64" stop-color="#6F5F97"/>
<stop offset="0.72" stop-color="#89689D"/>
<stop offset="0.83" stop-color="#B377A6"/>
<stop offset="0.96" stop-color="#ED8CB2"/>
<stop offset="1" stop-color="#FF92B6"/>
</linearGradient>
<linearGradient id="paint30_linear_601_2452" x1="504.024" y1="39.4281" x2="491.908" y2="98.6504" gradientUnits="userSpaceOnUse">
<stop stop-color="#88CFDA"/>
<stop offset="0.01" stop-color="#89CFD9"/>
<stop offset="0.48" stop-color="#C8D9BB"/>
<stop offset="0.82" stop-color="#F0DFA7"/>
<stop offset="1" stop-color="#FFE1A0"/>
</linearGradient>
<linearGradient id="paint31_linear_601_2452" x1="46.2817" y1="361.145" x2="265.961" y2="361.145" gradientUnits="userSpaceOnUse">
<stop stop-color="#7700BB"/>
<stop offset="1"/>
</linearGradient>
<linearGradient id="paint32_linear_601_2452" x1="90.0174" y1="181.063" x2="229.347" y2="181.063" gradientUnits="userSpaceOnUse">
<stop stop-color="#7633FF"/>
<stop offset="0.16" stop-color="#7137FF"/>
<stop offset="0.35" stop-color="#6243FF"/>
<stop offset="0.57" stop-color="#4957FF"/>
<stop offset="0.79" stop-color="#2672FF"/>
<stop offset="1" stop-color="#0090FF"/>
</linearGradient>
<linearGradient id="paint33_linear_601_2452" x1="163.452" y1="171.915" x2="165.382" y2="165.586" gradientUnits="userSpaceOnUse">
<stop stop-color="#7633FF"/>
<stop offset="0.13" stop-color="#7231FA"/>
<stop offset="0.29" stop-color="#682DEB"/>
<stop offset="0.46" stop-color="#5625D2"/>
<stop offset="0.65" stop-color="#3E1BAF"/>
<stop offset="0.84" stop-color="#1F0D83"/>
<stop offset="1" stop-color="#000057"/>
</linearGradient>
<linearGradient id="paint34_linear_601_2452" x1="141.263" y1="117.385" x2="143.901" y2="108.833" gradientUnits="userSpaceOnUse">
<stop stop-color="white"/>
<stop offset="0.12" stop-color="#FBFDFF"/>
<stop offset="0.25" stop-color="#EFF5FF"/>
<stop offset="0.37" stop-color="#DAE9FF"/>
<stop offset="0.5" stop-color="#BDD9FF"/>
<stop offset="0.63" stop-color="#98C3FF"/>
<stop offset="0.76" stop-color="#6BA9FF"/>
<stop offset="0.88" stop-color="#378AFF"/>
<stop offset="1" stop-color="#006AFF"/>
</linearGradient>
<linearGradient id="paint35_linear_601_2452" x1="90.5029" y1="140.879" x2="104.292" y2="140.879" gradientUnits="userSpaceOnUse">
<stop stop-color="#1DACFF"/>
<stop offset="0.24" stop-color="#1BA8FF"/>
<stop offset="0.49" stop-color="#169CFF"/>
<stop offset="0.74" stop-color="#0D87FF"/>
<stop offset="0.99" stop-color="#006BFF"/>
<stop offset="1" stop-color="#006AFF"/>
</linearGradient>
<linearGradient id="paint36_linear_601_2452" x1="77.7275" y1="158.857" x2="99.4148" y2="136.756" gradientUnits="userSpaceOnUse">
<stop stop-color="white"/>
<stop offset="0.12" stop-color="#FBFDFF"/>
<stop offset="0.25" stop-color="#EFF5FF"/>
<stop offset="0.37" stop-color="#DAE9FF"/>
<stop offset="0.5" stop-color="#BDD9FF"/>
<stop offset="0.63" stop-color="#98C3FF"/>
<stop offset="0.76" stop-color="#6BA9FF"/>
<stop offset="0.88" stop-color="#378AFF"/>
<stop offset="1" stop-color="#006AFF"/>
</linearGradient>
<linearGradient id="paint37_linear_601_2452" x1="176.091" y1="171.754" x2="234.592" y2="171.754" gradientUnits="userSpaceOnUse">
<stop stop-color="#1DACFF"/>
<stop offset="0.24" stop-color="#1BA8FF"/>
<stop offset="0.49" stop-color="#169CFF"/>
<stop offset="0.74" stop-color="#0D87FF"/>
<stop offset="0.99" stop-color="#006BFF"/>
<stop offset="1" stop-color="#006AFF"/>
</linearGradient>
<linearGradient id="paint38_linear_601_2452" x1="260.372" y1="231.118" x2="221.434" y2="166.157" gradientUnits="userSpaceOnUse">
<stop stop-color="#7633FF"/>
<stop offset="0.13" stop-color="#7231FA"/>
<stop offset="0.29" stop-color="#682DEB"/>
<stop offset="0.46" stop-color="#5625D2"/>
<stop offset="0.65" stop-color="#3E1BAF"/>
<stop offset="0.84" stop-color="#1F0D83"/>
<stop offset="1" stop-color="#000057"/>
</linearGradient>
<linearGradient id="paint39_linear_601_2452" x1="176.091" y1="171.754" x2="234.592" y2="171.754" gradientUnits="userSpaceOnUse">
<stop stop-color="#1DACFF"/>
<stop offset="0.14" stop-color="#1CA9FB"/>
<stop offset="0.27" stop-color="#1B9FEF"/>
<stop offset="0.41" stop-color="#188EDA"/>
<stop offset="0.55" stop-color="#1476BD"/>
<stop offset="0.7" stop-color="#0F5898"/>
<stop offset="0.84" stop-color="#08326B"/>
<stop offset="0.98" stop-color="#010737"/>
<stop offset="1" stop-color="#00002E"/>
</linearGradient>
<linearGradient id="paint40_linear_601_2452" x1="209.149" y1="162.12" x2="212.349" y2="151.898" gradientUnits="userSpaceOnUse">
<stop stop-color="#7633FF"/>
<stop offset="0.13" stop-color="#7231FA"/>
<stop offset="0.29" stop-color="#682DEB"/>
<stop offset="0.46" stop-color="#5625D2"/>
<stop offset="0.65" stop-color="#3E1BAF"/>
<stop offset="0.84" stop-color="#1F0D83"/>
<stop offset="1" stop-color="#000057"/>
</linearGradient>
<linearGradient id="paint41_linear_601_2452" x1="241.803" y1="149.458" x2="200.079" y2="171.723" gradientUnits="userSpaceOnUse">
<stop stop-color="#7633FF"/>
<stop offset="0.13" stop-color="#7231FA"/>
<stop offset="0.29" stop-color="#682DEB"/>
<stop offset="0.46" stop-color="#5625D2"/>
<stop offset="0.65" stop-color="#3E1BAF"/>
<stop offset="0.84" stop-color="#1F0D83"/>
<stop offset="1" stop-color="#000057"/>
</linearGradient>
<linearGradient id="paint42_linear_601_2452" x1="272.137" y1="200.172" x2="280.225" y2="200.172" gradientUnits="userSpaceOnUse">
<stop stop-color="#1DACFF"/>
<stop offset="0.24" stop-color="#1BA8FF"/>
<stop offset="0.49" stop-color="#169CFF"/>
<stop offset="0.74" stop-color="#0D87FF"/>
<stop offset="0.99" stop-color="#006BFF"/>
<stop offset="1" stop-color="#006AFF"/>
</linearGradient>
<linearGradient id="paint43_linear_601_2452" x1="277.397" y1="192.558" x2="303.549" y2="192.558" gradientUnits="userSpaceOnUse">
<stop stop-color="white"/>
<stop offset="0.12" stop-color="#FBFDFF"/>
<stop offset="0.25" stop-color="#EFF5FF"/>
<stop offset="0.37" stop-color="#DAE9FF"/>
<stop offset="0.5" stop-color="#BDD9FF"/>
<stop offset="0.63" stop-color="#98C3FF"/>
<stop offset="0.76" stop-color="#6BA9FF"/>
<stop offset="0.88" stop-color="#378AFF"/>
<stop offset="1" stop-color="#006AFF"/>
</linearGradient>
<linearGradient id="paint44_linear_601_2452" x1="303.779" y1="142.074" x2="289.266" y2="173.285" gradientUnits="userSpaceOnUse">
<stop stop-color="white"/>
<stop offset="0.12" stop-color="#FBFDFF"/>
<stop offset="0.25" stop-color="#EFF5FF"/>
<stop offset="0.37" stop-color="#DAE9FF"/>
<stop offset="0.5" stop-color="#BDD9FF"/>
<stop offset="0.63" stop-color="#98C3FF"/>
<stop offset="0.76" stop-color="#6BA9FF"/>
<stop offset="0.88" stop-color="#378AFF"/>
<stop offset="1" stop-color="#006AFF"/>
</linearGradient>
<linearGradient id="paint45_linear_601_2452" x1="153.391" y1="358.474" x2="186.613" y2="223.744" gradientUnits="userSpaceOnUse">
<stop stop-color="#311842"/>
<stop offset="0.46" stop-color="#190C4B"/>
<stop offset="1" stop-color="#000054"/>
</linearGradient>
<linearGradient id="paint46_linear_601_2452" x1="262.855" y1="83.6097" x2="247.419" y2="102.175" gradientUnits="userSpaceOnUse">
<stop stop-color="#1DACFF"/>
<stop offset="0.14" stop-color="#1CAAFB"/>
<stop offset="0.28" stop-color="#1BA3EF"/>
<stop offset="0.42" stop-color="#1898DA"/>
<stop offset="0.56" stop-color="#1488BD"/>
<stop offset="0.7" stop-color="#0F7499"/>
<stop offset="0.84" stop-color="#085B6B"/>
<stop offset="0.99" stop-color="#013E37"/>
<stop offset="1" stop-color="#003B31"/>
</linearGradient>
<linearGradient id="paint47_linear_601_2452" x1="218.887" y1="89.1954" x2="261.206" y2="89.1954" gradientUnits="userSpaceOnUse">
<stop stop-color="#1DACFF"/>
<stop offset="0.24" stop-color="#1BA8FF"/>
<stop offset="0.49" stop-color="#169CFF"/>
<stop offset="0.74" stop-color="#0D87FF"/>
<stop offset="0.99" stop-color="#006BFF"/>
<stop offset="1" stop-color="#006AFF"/>
</linearGradient>
<linearGradient id="paint48_linear_601_2452" x1="193.686" y1="91.1507" x2="214.617" y2="91.1507" gradientUnits="userSpaceOnUse">
<stop stop-color="#270006"/>
<stop offset="1"/>
</linearGradient>
<linearGradient id="paint49_linear_601_2452" x1="257.877" y1="108.778" x2="284.514" y2="108.778" gradientUnits="userSpaceOnUse">
<stop stop-color="#270006"/>
<stop offset="1"/>
</linearGradient>
<linearGradient id="paint50_linear_601_2452" x1="229.759" y1="141.588" x2="249.321" y2="55.6242" gradientUnits="userSpaceOnUse">
<stop stop-color="white"/>
<stop offset="0.12" stop-color="#FBFDFF"/>
<stop offset="0.25" stop-color="#EFF5FF"/>
<stop offset="0.37" stop-color="#DAE9FF"/>
<stop offset="0.5" stop-color="#BDD9FF"/>
<stop offset="0.63" stop-color="#98C3FF"/>
<stop offset="0.76" stop-color="#6BA9FF"/>
<stop offset="0.88" stop-color="#378AFF"/>
<stop offset="1" stop-color="#006AFF"/>
</linearGradient>
<linearGradient id="paint51_linear_601_2452" x1="243.341" y1="81.1763" x2="248.624" y2="63.9847" gradientUnits="userSpaceOnUse">
<stop stop-color="white"/>
<stop offset="0.12" stop-color="#FBFDFF"/>
<stop offset="0.25" stop-color="#EFF5FF"/>
<stop offset="0.37" stop-color="#DAE9FF"/>
<stop offset="0.5" stop-color="#BDD9FF"/>
<stop offset="0.63" stop-color="#98C3FF"/>
<stop offset="0.76" stop-color="#6BA9FF"/>
<stop offset="0.88" stop-color="#378AFF"/>
<stop offset="1" stop-color="#006AFF"/>
</linearGradient>
<linearGradient id="paint52_linear_601_2452" x1="207" y1="122.996" x2="229.348" y2="122.996" gradientUnits="userSpaceOnUse">
<stop stop-color="white"/>
<stop offset="0.12" stop-color="#FBFDFF"/>
<stop offset="0.25" stop-color="#EFF5FF"/>
<stop offset="0.37" stop-color="#DAE9FF"/>
<stop offset="0.5" stop-color="#BDD9FF"/>
<stop offset="0.63" stop-color="#98C3FF"/>
<stop offset="0.76" stop-color="#6BA9FF"/>
<stop offset="0.88" stop-color="#378AFF"/>
<stop offset="1" stop-color="#006AFF"/>
</linearGradient>
<linearGradient id="paint53_linear_601_2452" x1="264.527" y1="189.244" x2="262.049" y2="185.332" gradientUnits="userSpaceOnUse">
<stop stop-color="white"/>
<stop offset="0.12" stop-color="#FBFDFF"/>
<stop offset="0.25" stop-color="#EFF5FF"/>
<stop offset="0.37" stop-color="#DAE9FF"/>
<stop offset="0.5" stop-color="#BDD9FF"/>
<stop offset="0.63" stop-color="#98C3FF"/>
<stop offset="0.76" stop-color="#6BA9FF"/>
<stop offset="0.88" stop-color="#378AFF"/>
<stop offset="1" stop-color="#006AFF"/>
</linearGradient>
</defs>
</svg>
