<svg width="30" height="30" viewBox="0 0 30 30" fill="none" xmlns="http://www.w3.org/2000/svg">
<path fill-rule="evenodd" clip-rule="evenodd" d="M15 0C23.2846 0 30 6.71543 30 15C30 23.2846 23.2846 30 15 30C6.71543 30 0 23.2846 0 15C0 6.71543 6.71543 0 15 0Z" fill="url(#paint0_linear_572_2359)"/>
<path fill-rule="evenodd" clip-rule="evenodd" d="M12.8414 23.0945C12.8414 23.21 12.9352 23.3037 13.0506 23.3037H16.033C16.1484 23.3037 16.2416 23.21 16.2416 23.0945V14.9342H18.4037C18.5121 14.9342 18.6029 14.851 18.6117 14.7426L18.8197 12.284C18.8303 12.1621 18.7342 12.0572 18.6117 12.0572H16.2416V10.3129C16.2416 9.90391 16.5732 9.57285 16.9822 9.57285H18.648C18.7641 9.57285 18.8572 9.4791 18.8572 9.36367V6.90449C18.8572 6.78906 18.7641 6.69531 18.648 6.69531H15.8332C14.1809 6.69531 12.8414 8.03477 12.8414 9.68652V12.0572H11.3508C11.2354 12.0572 11.1416 12.151 11.1416 12.2664V14.725C11.1416 14.841 11.2354 14.9342 11.3508 14.9342H12.8414V23.0945Z" fill="#ECECEC"/>
<defs>
<linearGradient id="paint0_linear_572_2359" x1="2.33196" y1="6.75" x2="25.882" y2="25.2" gradientUnits="userSpaceOnUse">
<stop stop-color="#00F1FF"/>
<stop offset="0.322917" stop-color="#00D8FF"/>
<stop offset="0.619792" stop-color="#00C0FF"/>
<stop offset="0.7773" stop-color="#00B2FF"/>
<stop offset="1" stop-color="#00ADFF"/>
</linearGradient>
</defs>
</svg>
