<svg width="30" height="30" viewBox="0 0 30 30" fill="none" xmlns="http://www.w3.org/2000/svg">
<path d="M30 15C30 23.2844 23.2844 30 15 30C6.71562 30 0 23.2844 0 15C0 6.71562 6.71562 0 15 0C23.2844 0 30 6.71562 30 15Z" fill="url(#paint0_linear_572_2380)"/>
<path d="M19.2514 25.1074H10.8619C7.60173 25.1074 4.94922 22.4549 4.94922 19.1947V10.8053C4.94922 7.54509 7.60173 4.89258 10.8619 4.89258H19.2514C22.5118 4.89258 25.1641 7.54509 25.1641 10.8053V18.4021C25.1641 18.8873 24.7706 19.281 24.2852 19.281C23.7997 19.281 23.4062 18.8873 23.4062 18.4021V10.8053C23.4062 8.51418 21.5425 6.65039 19.2514 6.65039H10.8619C8.57082 6.65039 6.70703 8.51418 6.70703 10.8053V19.1947C6.70703 21.4858 8.57082 23.3496 10.8619 23.3496H19.2514C20.5629 23.3496 21.77 22.7495 22.564 21.703C22.8574 21.3162 23.4085 21.2407 23.7953 21.5339C24.1822 21.8273 24.2577 22.3787 23.9645 22.7655C22.8352 24.2539 21.1174 25.1074 19.2514 25.1074Z" fill="#ECECEC"/>
<path d="M15.0576 20.4927C12.0286 20.4927 9.56445 18.0285 9.56445 14.9995C9.56445 11.9705 12.0286 9.50635 15.0576 9.50635C18.0866 9.50635 20.5508 11.9705 20.5508 14.9995C20.5508 18.0285 18.0866 20.4927 15.0576 20.4927ZM15.0576 11.2642C12.9979 11.2642 11.3223 12.9398 11.3223 14.9995C11.3223 17.0592 12.9979 18.7349 15.0576 18.7349C17.1173 18.7349 18.793 17.0592 18.793 14.9995C18.793 12.9398 17.1173 11.2642 15.0576 11.2642Z" fill="#ECECEC"/>
<path d="M21.312 9.52551C21.312 9.95741 20.962 10.3076 20.5301 10.3076C20.0982 10.3076 19.748 9.95741 19.748 9.52551C19.748 9.09361 20.0982 8.74365 20.5301 8.74365C20.962 8.74365 21.312 9.09361 21.312 9.52551Z" fill="#ECECEC"/>
<defs>
<linearGradient id="paint0_linear_572_2380" x1="2.33196" y1="6.75" x2="25.882" y2="25.2" gradientUnits="userSpaceOnUse">
<stop stop-color="#00F1FF"/>
<stop offset="0.322917" stop-color="#00D8FF"/>
<stop offset="0.619792" stop-color="#00C0FF"/>
<stop offset="0.7773" stop-color="#00B2FF"/>
<stop offset="1" stop-color="#00ADFF"/>
</linearGradient>
</defs>
</svg>
