<svg width="30" height="32" viewBox="0 0 30 32" fill="none" xmlns="http://www.w3.org/2000/svg">
<path fill-rule="evenodd" clip-rule="evenodd" d="M23.2903 28.0971C22.6604 25.6441 21.742 22.0551 21.22 20.0353C21.2934 19.938 21.3663 19.8408 21.4388 19.7436L25.7848 21.675L30 31.1467L23.2903 28.0969V28.0971ZM22.2605 28.1855L20.4231 21.0297C19.9648 21.5689 19.4919 22.0861 19.0127 22.5634C17.7782 23.7966 16.4907 24.8131 15.2845 25.5114C15.2053 25.5651 15.1125 25.5952 15.0168 25.5983C14.9212 25.6015 14.8266 25.5775 14.744 25.5291C13.5321 24.8308 12.2335 23.8098 10.9876 22.5634C10.508 22.0861 10.0355 21.5689 9.5771 21.0297L7.73977 28.1855L15.0002 31.6771L22.2605 28.1855ZM6.70974 28.0971L0 31.1469L4.21567 21.675L8.56118 19.7436C8.63455 19.8408 8.70792 19.9424 8.78309 20.0397C8.46573 21.2552 7.33295 25.6705 6.70974 28.0971ZM15.0002 5.01671C16.1906 5.01653 17.3442 5.4291 18.2645 6.18413C19.1847 6.93916 19.8147 7.98993 20.0471 9.1574C20.2795 10.3249 20.0999 11.5368 19.5389 12.5867C18.9778 13.6365 18.0702 14.4594 16.9704 14.9151C15.8707 15.3707 14.6471 15.4309 13.5079 15.0855C12.3688 14.7401 11.3847 14.0103 10.7232 13.0206C10.0618 12.0309 9.76405 10.8425 9.88064 9.65785C9.99724 8.47321 10.521 7.36565 11.3627 6.52388C11.8402 6.04592 12.4072 5.66679 13.0314 5.40817C13.6556 5.14956 14.3246 5.01653 15.0002 5.01671ZM17.9147 7.24873C17.2402 6.57398 16.3526 6.154 15.4032 6.06038C14.4537 5.96675 13.5012 6.20528 12.7079 6.73529C11.9147 7.26531 11.3298 8.05401 11.0529 8.96699C10.776 9.87997 10.8243 10.8607 11.1895 11.7421C11.5548 12.6234 12.2144 13.3509 13.0559 13.8004C13.8974 14.2499 14.8687 14.3937 15.8043 14.2072C16.74 14.0208 17.582 13.5156 18.1869 12.7779C18.7918 12.0401 19.1222 11.1154 19.1217 10.1614C19.1224 9.62028 19.0162 9.08438 18.8091 8.58451C18.6019 8.08463 18.2979 7.63067 17.9147 7.24873ZM8.43653 2.69628C7.81962 3.30606 7.28529 3.99406 6.8472 4.74272C6.84281 4.75156 6.83792 4.76035 6.83304 4.76919C5.25299 7.52279 5.37851 10.6829 6.42957 13.6884C7.50135 16.7557 9.53151 19.6596 11.7117 21.8383C12.8104 22.9388 13.941 23.8493 15.0013 24.4946C16.0581 23.8496 17.1887 22.9391 18.2888 21.8383C20.4687 19.6594 22.4991 16.7555 23.5705 13.6882C24.6251 10.6738 24.7479 7.50485 23.1528 4.74278C23.1476 4.73391 23.1427 4.72506 23.1382 4.71624C22.7031 3.97606 22.1738 3.2955 21.5634 2.69164C19.8143 0.966918 17.4566 0 15.0002 0C12.5438 0 10.1861 0.966918 8.43703 2.69164L8.43653 2.69628Z" fill="url(#paint0_linear_572_2387)"/>
<defs>
<linearGradient id="paint0_linear_572_2387" x1="2.33196" y1="7.12734" x2="26.8429" y2="25.3136" gradientUnits="userSpaceOnUse">
<stop stop-color="#00F1FF"/>
<stop offset="0.322917" stop-color="#00D8FF"/>
<stop offset="0.619792" stop-color="#00C0FF"/>
<stop offset="0.7773" stop-color="#00B2FF"/>
<stop offset="1" stop-color="#00ADFF"/>
</linearGradient>
</defs>
</svg>
