<svg width="30" height="30" viewBox="0 0 30 30" fill="none" xmlns="http://www.w3.org/2000/svg">
<path d="M29.9941 15.4157C30.2247 7.13478 23.6969 0.237821 15.462 0.00715336C7.18107 -0.246581 0.284114 6.2813 0.00731265 14.5623C-0.177221 20.4443 3.14439 25.888 8.42667 28.4715C8.65734 28.5868 8.86494 28.4715 8.98027 28.287C9.02641 28.2178 9.02641 28.1716 9.02641 28.1024C8.98027 27.1567 9.02641 26.1879 9.21094 25.2883C9.39548 24.4579 10.1567 21.3208 10.6411 19.2448C10.8717 18.2299 10.8948 17.1919 10.7103 16.1769C10.6411 15.8079 10.5949 15.4388 10.5949 15.0236C10.5949 12.8092 11.8636 11.1715 13.4783 11.1715C14.8162 11.1715 15.5082 12.1864 15.5082 13.4089C15.5082 14.7929 14.6547 16.8228 14.1934 18.7373C13.8935 19.9829 14.6316 21.2516 15.8772 21.5515C16.1079 21.6207 16.3155 21.6207 16.5462 21.6207C19.3834 21.6207 21.5747 18.622 21.5747 14.3085C21.5747 10.4795 18.8298 7.82678 14.9084 7.82678C10.3643 7.82678 7.7116 11.2407 7.7116 14.7468C7.7116 16.0616 8.1268 17.3303 8.91107 18.3913C9.02641 18.5067 9.04947 18.6912 9.02641 18.8296C8.91107 19.314 8.65734 20.3981 8.58814 20.6288C8.51894 20.9287 8.35747 20.9748 8.0576 20.8595C6.07387 19.8445 4.80519 16.9151 4.80519 14.6084C4.80519 9.57985 8.44974 4.98957 15.3236 4.98957C20.8596 4.98957 25.1501 8.93398 25.1501 14.1701C25.1501 19.6831 21.7131 24.0888 16.8691 24.0888C15.7158 24.0888 14.5394 23.6506 13.6859 22.8432C13.5475 22.7048 13.2707 22.7048 13.1323 22.8432C13.0862 22.8894 13.0631 22.9586 13.017 23.0278C12.7632 23.9735 12.348 25.542 12.2327 26.0264C11.9328 27.0414 11.5176 27.964 10.9871 28.9098C10.8717 29.0943 10.9409 29.348 11.1716 29.4634C11.2177 29.4634 11.2408 29.5095 11.2869 29.5095C12.5326 29.8094 13.8243 29.9939 15.116 29.9478C23.0279 29.8786 29.7634 23.2815 29.9941 15.4157Z" fill="url(#paint0_linear_572_2386)"/>
<defs>
<linearGradient id="paint0_linear_572_2386" x1="2.33196" y1="6.73983" x2="25.855" y2="25.1965" gradientUnits="userSpaceOnUse">
<stop stop-color="#00F1FF"/>
<stop offset="0.322917" stop-color="#00D8FF"/>
<stop offset="0.619792" stop-color="#00C0FF"/>
<stop offset="0.7773" stop-color="#00B2FF"/>
<stop offset="1" stop-color="#00ADFF"/>
</linearGradient>
</defs>
</svg>
