<svg width="30" height="30" viewBox="0 0 30 30" fill="none" xmlns="http://www.w3.org/2000/svg">
<g clip-path="url(#clip0_572_2374)">
<path fill-rule="evenodd" clip-rule="evenodd" d="M15 0C23.2846 0 30 6.71543 30 15C30 23.2846 23.2846 30 15 30C6.71543 30 0 23.2846 0 15C0 6.71543 6.71543 0 15 0Z" fill="url(#paint0_linear_572_2374)"/>
<path fill-rule="evenodd" clip-rule="evenodd" d="M23.0139 9.86558C22.5006 10.0976 21.9363 10.2388 21.3826 10.3314C21.8695 10.25 22.5914 9.08629 22.7309 8.62984C22.7725 8.54664 22.7121 8.51676 22.6406 8.5525C22.0231 8.88355 21.3838 9.12379 20.7035 9.29371C20.5758 9.32535 20.499 9.16656 20.4006 9.08512C17.986 7.03023 14.393 9.09098 14.8617 12.2732C14.8723 12.3511 14.8658 12.3617 14.7949 12.3511C12.1342 11.9545 9.92814 11.0023 8.13693 8.96207C8.05958 8.87301 8.0174 8.87359 7.95353 8.96851C7.01076 10.3818 7.69103 12.3459 8.93849 13.3179C8.88517 13.3285 8.23419 13.2582 7.65353 12.9582C7.5756 12.9084 7.53693 12.9371 7.5299 13.025C7.45138 14.4078 8.71115 16.0232 10.0822 16.2587C9.82443 16.315 9.55958 16.3554 8.82189 16.2974C8.7299 16.2798 8.69474 16.3255 8.7299 16.414C9.28419 17.9252 10.4813 18.3752 11.3777 18.6312C11.4973 18.6517 11.6174 18.6523 11.7381 18.6804C11.083 19.6543 8.25177 20.1183 7.16251 20.0111C7.08693 20 6.80333 19.9607 6.98615 20.1101C13.4555 24.3746 21.5121 19.8107 21.5121 11.6978C21.5121 11.5929 21.6352 11.5355 21.709 11.4804C22.0459 11.2273 23.0742 10.2992 23.0742 9.86558C23.0742 9.82281 23.0795 9.8357 23.0139 9.86558Z" fill="#ECECEC"/>
</g>
<defs>
<linearGradient id="paint0_linear_572_2374" x1="2.33196" y1="6.75" x2="25.882" y2="25.2" gradientUnits="userSpaceOnUse">
<stop stop-color="#00F1FF"/>
<stop offset="0.322917" stop-color="#00D8FF"/>
<stop offset="0.619792" stop-color="#00C0FF"/>
<stop offset="0.7773" stop-color="#00B2FF"/>
<stop offset="1" stop-color="#00ADFF"/>
</linearGradient>
<clipPath id="clip0_572_2374">
<rect width="30" height="30" fill="white"/>
</clipPath>
</defs>
</svg>
