<svg width="30" height="30" viewBox="0 0 30 30" fill="none" xmlns="http://www.w3.org/2000/svg">
<path d="M30 15C30 23.2844 23.2844 30 15 30C6.71562 30 0 23.2844 0 15C0 6.71562 6.71562 0 15 0C23.2844 0 30 6.71562 30 15Z" fill="url(#paint0_linear_572_2369)"/>
<path d="M15 22.8136C14.3516 22.8136 8.61649 22.8008 6.97586 22.357C5.8223 22.0471 4.9118 21.1375 4.60075 19.9842C4.16519 18.3488 4.16016 15.1076 4.16016 14.9705C4.16016 14.8341 4.16519 11.6096 4.59938 9.96169C4.90814 8.81659 5.83923 7.87909 6.97289 7.56827C6.97586 7.56758 6.97884 7.56667 6.98181 7.56598C8.6039 7.1398 14.35 7.12744 15 7.12744C15.6503 7.12744 21.4007 7.14026 23.0264 7.58452C24.1777 7.89397 25.0882 8.80354 25.3992 9.95688C25.8515 11.6073 25.8405 14.854 25.8398 14.9914C25.8398 14.9959 25.8398 15.2118 25.8328 15.5581C25.8229 16.0435 25.4233 16.4281 24.9362 16.4191C24.451 16.4093 24.0656 16.0078 24.0754 15.5226C24.0818 15.1958 24.082 14.9888 24.082 14.9868C24.0862 14.1129 24.0264 11.5977 23.703 10.4181C23.5535 9.86372 23.1184 9.42953 22.5666 9.28099C21.5032 8.99054 17.4596 8.88525 15 8.88525C13.2992 8.88525 8.62885 8.95369 7.43317 9.26474C6.89117 9.41512 6.44577 9.86601 6.29791 10.4144C5.923 11.8376 5.91797 14.9394 5.91797 14.9705C5.9182 15.8414 5.98686 18.3584 6.2986 19.5292C6.44646 20.0773 6.88156 20.5115 7.4334 20.6601C8.63457 20.9849 13.3026 21.0558 15 21.0558C16.7031 21.0558 21.3831 20.9874 22.5714 20.675C23.1184 20.528 23.5535 20.0936 23.7021 19.5429C23.8284 19.0742 24.3109 18.7965 24.7794 18.9233C25.2482 19.0494 25.5256 19.5319 25.3992 20.0007C25.0884 21.154 24.1777 22.0636 23.023 22.3739C21.3961 22.8013 15.6498 22.8136 15 22.8136Z" fill="#ECECEC"/>
<path d="M13.7376 18.7421C13.4497 18.7421 13.1615 18.6666 12.8985 18.515C12.3696 18.2104 12.0537 17.6636 12.0537 17.0522V12.8468C12.0537 12.2354 12.3696 11.6884 12.8985 11.3838C13.4259 11.08 14.0551 11.0812 14.5815 11.3865L18.2051 13.4895C18.7311 13.7946 19.0451 14.3405 19.0451 14.9495C19.0451 15.5586 18.7311 16.1045 18.2051 16.4095L14.5815 18.5123C14.3176 18.6656 14.0276 18.7421 13.7376 18.7421ZM13.8115 12.9722V16.9268L17.2191 14.9495L13.8115 12.9722Z" fill="#ECECEC"/>
<defs>
<linearGradient id="paint0_linear_572_2369" x1="2.33196" y1="6.75" x2="25.882" y2="25.2" gradientUnits="userSpaceOnUse">
<stop stop-color="#00F1FF"/>
<stop offset="0.322917" stop-color="#00D8FF"/>
<stop offset="0.619792" stop-color="#00C0FF"/>
<stop offset="0.7773" stop-color="#00B2FF"/>
<stop offset="1" stop-color="#00ADFF"/>
</linearGradient>
</defs>
</svg>
