<svg width="28" height="28" viewBox="0 0 28 28" fill="none" xmlns="http://www.w3.org/2000/svg">
<path d="M0.5 14C0.5 6.54814 6.54814 0.5 14 0.5C21.4519 0.5 27.5 6.54814 27.5 14C27.5 21.4519 21.4519 27.5 14 27.5C6.54814 27.5 0.5 21.4519 0.5 14ZM12.1 19.6C12.1 20.6461 12.9539 21.5 14 21.5C15.0461 21.5 15.9 20.6461 15.9 19.6V14C15.9 12.9539 15.0461 12.1 14 12.1C12.9539 12.1 12.1 12.9539 12.1 14V19.6ZM14 10.3C15.0493 10.3 15.9 9.44934 15.9 8.4C15.9 7.35066 15.0493 6.5 14 6.5C12.9507 6.5 12.1 7.35066 12.1 8.4C12.1 9.44934 12.9507 10.3 14 10.3Z" stroke="#919191"/>
</svg>
