<svg width="22" height="22" viewBox="0 0 22 22" fill="none" xmlns="http://www.w3.org/2000/svg">
<path d="M13.2764 21.4613L13.2682 21.4712L13.2606 21.4814C13.2516 21.4935 13.2448 21.4973 13.2426 21.4984C13.2399 21.4998 13.2381 21.5 13.237 21.5H11.5263L11.5261 21.5C11.5235 21.5001 11.5071 21.5004 11.4808 21.4686C11.4518 21.4336 11.4196 21.3655 11.4196 21.2667V19.1987C11.4196 19.093 11.4497 19.0343 11.4747 19.004L17.351 11.9007L19.2727 14.2128L13.2764 21.4613ZM12.8462 7.33333C12.8462 7.95679 12.4395 8.3 12.1329 8.3H1.21329C0.906679 8.3 0.5 7.95679 0.5 7.33333C0.5 6.70988 0.906679 6.36667 1.21329 6.36667H12.1329C12.4395 6.36667 12.8462 6.70988 12.8462 7.33333ZM1.21329 2.43333C0.906679 2.43333 0.5 2.09012 0.5 1.46667C0.5 0.843215 0.906679 0.5 1.21329 0.5H12.1329C12.4395 0.5 12.8462 0.843215 12.8462 1.46667C12.8462 2.09012 12.4395 2.43333 12.1329 2.43333H1.21329ZM7.27975 12.2333C7.58636 12.2333 7.99304 12.5765 7.99304 13.2C7.99304 13.8235 7.58636 14.1667 7.27975 14.1667H1.21329C0.906679 14.1667 0.5 13.8235 0.5 13.2C0.5 12.5765 0.906679 12.2333 1.21329 12.2333H7.27975ZM20.7837 12.4009L18.8604 10.076L19.4582 9.35337C19.6078 9.17257 19.78 9.10567 19.9283 9.10567C20.0766 9.10567 20.2488 9.17257 20.3984 9.35337L21.2599 10.3947C21.58 10.7818 21.58 11.4382 21.2599 11.8253L20.7837 12.4009Z" stroke="#919191"/>
</svg>
