<svg width="32" height="16" viewBox="0 0 32 16" fill="none" xmlns="http://www.w3.org/2000/svg">
<path d="M10.5462 10.6718L10.5462 10.6718L10.5497 10.6702C12.0561 10.0008 13.907 9.5 16 9.5C18.0922 9.5 19.9437 10.0004 21.4519 10.6576C22.7056 11.2156 23.5 12.4729 23.5 13.84V14.6667C23.5 15.1239 23.1239 15.5 22.6667 15.5H9.33333C8.87614 15.5 8.5 15.1239 8.5 14.6667V13.8533C8.5 12.4705 9.29631 11.2157 10.5462 10.6718ZM1.82512 11.8989L1.82623 11.8984C2.89911 11.4314 4.08468 11.1667 5.33333 11.1667C5.58272 11.1667 5.82682 11.1798 6.06977 11.203C5.70438 12.0174 5.5 12.9127 5.5 13.8533V15.5H1.33333C0.876142 15.5 0.5 15.1239 0.5 14.6667V13.9067C0.5 13.0285 1.01924 12.2474 1.82512 11.8989ZM30.1738 11.8985L30.1749 11.8989C30.9808 12.2474 31.5 13.0285 31.5 13.9067V14.6667C31.5 15.1239 31.1239 15.5 30.6667 15.5H26.5V13.8533C26.5 12.9127 26.2956 12.0174 25.9302 11.203C26.1732 11.1798 26.4173 11.1667 26.6667 11.1667C27.9153 11.1667 29.1009 11.4314 30.1738 11.8985ZM7.5 6.66667C7.5 7.85719 6.52386 8.83333 5.33333 8.83333C4.14281 8.83333 3.16667 7.85719 3.16667 6.66667C3.16667 5.47614 4.14281 4.5 5.33333 4.5C6.52386 4.5 7.5 5.47614 7.5 6.66667ZM28.8333 6.66667C28.8333 7.85719 27.8572 8.83333 26.6667 8.83333C25.4761 8.83333 24.5 7.85719 24.5 6.66667C24.5 5.47614 25.4761 4.5 26.6667 4.5C27.8572 4.5 28.8333 5.47614 28.8333 6.66667ZM16 0.5C17.9372 0.5 19.5 2.06281 19.5 4C19.5 5.93719 17.9372 7.5 16 7.5C14.0628 7.5 12.5 5.93719 12.5 4C12.5 2.06281 14.0628 0.5 16 0.5Z" stroke="#919191"/>
</svg>
